<svg xmlns="http://www.w3.org/2000/svg" viewBox="0 0 180 180">
<path d="M32 58 18 72l14 14 12-12 14 14-18 18 24 24 18-18 16 16-12 12 14 14 14-14-12-12 18-18-24-24-18 18-14-14 12-12-14-14-14 14Z" fill="#fff8f3" stroke="#17151a" stroke-width="7" stroke-linejoin="round"/>
<path d="M32 58 18 72l14 14 12-12 14 14M100 128l14 14 12-12 14 14 14-14-14-14 12-12" fill="none" stroke="#ff6faa" stroke-width="12" stroke-linecap="round" stroke-linejoin="round"/>
<path d="m63 91 28 28 28-28-28-28-28 28Z" fill="#b9a8ff" stroke="#17151a" stroke-width="7"/>
</svg>