<svg xmlns="http://www.w3.org/2000/svg" viewBox="0 0 150 150">
<path d="M73 69C69 38 85 20 111 15M75 69C67 42 49 29 26 25" fill="none" stroke="#17151a" stroke-width="7" stroke-linecap="round"/>
<path d="M74 67C83 44 98 34 119 32" fill="none" stroke="#ff6faa" stroke-width="6" stroke-linecap="round"/>
<path d="M58 70c-18-9-39 1-42 20-4 22 18 42 39 30 18-10 22-41 3-50Z" fill="#ff6faa" stroke="#17151a" stroke-width="7"/>
<path d="M98 66c-19-6-38 7-38 26 0 22 24 38 43 23 17-13 15-43-5-49Z" fill="#b9a8ff" stroke="#17151a" stroke-width="7"/>
<path d="M106 18c12-8 25-7 34 1-11 9-23 10-34-1Z" fill="#f3ef73" stroke="#17151a" stroke-width="6"/>
</svg>